<svg width="50" height="50" viewBox="0 0 50 50" fill="none" xmlns="http://www.w3.org/2000/svg">
<path d="M4.70009 32.5665C4.77092 31.8936 5.25842 31.3519 6.2355 30.2665L8.38134 27.8644C8.90842 27.1978 9.28134 26.0415 9.28134 24.9998C9.28134 23.9582 8.90634 22.7998 8.38342 22.1353L6.2355 19.7332C5.25842 18.6498 4.77092 18.1061 4.70009 17.4332C4.62925 16.7603 4.99384 16.1269 5.723 14.8623L6.75217 13.0769C7.52925 11.7269 7.91884 11.0519 8.57925 10.7853C9.24175 10.5144 9.98967 10.7269 11.4855 11.1519L14.0272 11.8665C14.9834 12.0873 15.9855 11.9623 16.8584 11.5144L17.5605 11.1103C18.3088 10.6304 18.8841 9.92373 19.2022 9.09359L19.898 7.0165C20.3563 5.6415 20.5855 4.954 21.1272 4.55817C21.6751 4.1665 22.4001 4.1665 23.8438 4.1665H26.1668C27.6147 4.1665 28.3376 4.1665 28.8813 4.56025C29.4272 4.954 29.6543 5.6415 30.1126 7.0165L30.8084 9.09359C31.1265 9.92373 31.7017 10.6304 32.4501 11.1103L33.1522 11.5144C34.0251 11.9623 35.0272 12.0873 35.9813 11.8686L38.523 11.1519C40.0209 10.7269 40.7688 10.5144 41.4313 10.7832C42.0918 11.054 42.4813 11.7269 43.2584 13.0769L44.2876 14.8623C45.0168 16.1269 45.3813 16.7582 45.3084 17.4332C45.2397 18.1061 44.7522 18.6478 43.7751 19.7332L41.6293 22.1353C41.1022 22.7998 40.7293 23.9582 40.7293 24.9998C40.7293 26.0415 41.1043 27.1998 41.6272 27.8644L43.7751 30.2665C44.7522 31.3498 45.2397 31.8936 45.3105 32.5665C45.3813 33.2394 45.0168 33.8728 44.2876 35.1373L43.2584 36.9228C42.4813 38.2728 42.0918 38.9478 41.4313 39.2144C40.7688 39.4853 40.0209 39.2728 38.5251 38.8478L35.9834 38.1332C35.027 37.9132 34.0236 38.0379 33.1501 38.4853L32.4501 38.8894C31.7001 39.3686 31.1272 40.0769 30.8084 40.9061L30.1126 42.9832C29.6543 44.3582 29.4251 45.0457 28.8834 45.4415C28.3376 45.8332 27.6126 45.8332 26.1668 45.8332H23.8459C22.398 45.8332 21.6751 45.8332 21.1313 45.4394C20.5855 45.0457 20.3563 44.3603 19.9001 42.9853" fill="#105AF6"/>
<path d="M4.70009 32.5665C4.77092 31.8936 5.25842 31.3519 6.2355 30.2665L8.38134 27.8644C8.90842 27.1978 9.28134 26.0415 9.28134 24.9998C9.28134 23.9582 8.90634 22.7998 8.38342 22.1353L6.2355 19.7332C5.25842 18.6498 4.77092 18.1061 4.70009 17.4332C4.62925 16.7603 4.99384 16.1269 5.723 14.8623L6.75217 13.0769C7.52925 11.7269 7.91884 11.0519 8.57925 10.7853C9.24175 10.5144 9.98967 10.7269 11.4855 11.1519L14.0272 11.8665C14.9834 12.0873 15.9855 11.9623 16.8584 11.5144L17.5605 11.1103C18.3088 10.6304 18.8841 9.92373 19.2022 9.09359L19.898 7.0165C20.3563 5.6415 20.5855 4.954 21.1272 4.55817C21.6751 4.1665 22.4001 4.1665 23.8438 4.1665H26.1668C27.6147 4.1665 28.3376 4.1665 28.8813 4.56025C29.4272 4.954 29.6543 5.6415 30.1126 7.0165L30.8084 9.09359C31.1265 9.92373 31.7017 10.6304 32.4501 11.1103L33.1522 11.5144C34.0251 11.9623 35.0272 12.0873 35.9813 11.8686L38.523 11.1519C40.0209 10.7269 40.7688 10.5144 41.4313 10.7832C42.0918 11.054 42.4813 11.7269 43.2584 13.0769L44.2876 14.8623C45.0168 16.1269 45.3813 16.7582 45.3084 17.4332C45.2397 18.1061 44.7522 18.6478 43.7751 19.7332L41.6293 22.1353C41.1022 22.7998 40.7293 23.9582 40.7293 24.9998C40.7293 26.0415 41.1043 27.1998 41.6272 27.8644L43.7751 30.2665C44.7522 31.3498 45.2397 31.8936 45.3105 32.5665C45.3813 33.2394 45.0168 33.8728 44.2876 35.1373L43.2584 36.9228C42.4813 38.2728 42.0918 38.9478 41.4313 39.2144C40.7688 39.4853 40.0209 39.2728 38.5251 38.8478L35.9834 38.1332C35.027 37.9132 34.0236 38.0379 33.1501 38.4853L32.4501 38.8894C31.7001 39.3686 31.1272 40.0769 30.8084 40.9061L30.1126 42.9832C29.6543 44.3582 29.4251 45.0457 28.8834 45.4415C28.3376 45.8332 27.6126 45.8332 26.1668 45.8332H23.8459C22.398 45.8332 21.6751 45.8332 21.1313 45.4394C20.5855 45.0457 20.3563 44.3603 19.9001 42.9853" stroke="#105AF6" stroke-width="3" stroke-linecap="round"/>
<path d="M27.0039 15.6685C27.493 15.6598 27.921 15.6464 28.2461 15.6616C28.5618 15.6765 28.976 15.721 29.3486 15.9595C29.7506 16.2169 29.9408 16.5912 30.0557 16.8784C30.2067 17.256 30.2151 17.6477 30.083 18.02C29.9671 18.3465 29.7621 18.6013 29.5996 18.7808C29.4354 18.9622 29.2299 19.1553 29.0537 19.3247C28.8652 19.5059 28.6706 19.6963 28.4707 19.9185L28.4531 19.938L28.4346 19.9565C27.3999 20.9912 26.6512 21.6963 26.0957 22.272C25.8253 22.5522 25.6419 22.7614 25.5244 22.9204C25.4551 23.0142 25.4266 23.0657 25.418 23.0825L25.4141 23.106L25.3984 23.1587C25.1305 24.0661 25.5085 24.6963 26.0488 25.0093C26.6264 25.3438 27.3565 25.3061 27.8701 24.7925C28.0348 24.6278 28.3489 24.3123 28.7344 23.9253C29.1194 23.5387 29.5748 23.0819 30.0186 22.6382C30.843 21.8138 31.7016 20.9608 31.9385 20.7534L31.9375 20.7524C31.9416 20.7488 31.9461 20.7453 31.9502 20.7417C31.9543 20.7382 31.9583 20.735 31.9619 20.7319V20.7329C32.343 20.4088 32.8292 20.3421 33.1865 20.3726C33.5506 20.4036 33.9907 20.5527 34.3271 20.9116L34.4355 21.021C34.483 21.0725 34.5381 21.1373 34.5879 21.2104C34.7085 21.3879 34.777 21.5743 34.8145 21.7661C34.8431 21.9126 34.8559 22.0827 34.8594 22.2729L34.8516 22.8999C34.8291 23.8073 34.8397 25.1136 34.8418 26.4976L34.8379 27.186C34.8267 27.8873 34.7903 28.6185 34.6953 29.3032C34.5724 30.1888 34.3332 31.1415 33.8018 31.8501C31.9779 34.5353 28.946 34.6286 26.7969 34.7241L26.7959 34.7231C25.709 34.7863 24.6804 34.7632 23.9609 34.772C23.5813 34.7766 23.2962 34.7895 23.0859 34.8179C22.8467 34.8502 22.8427 34.886 22.915 34.8335L22.8486 34.8823L22.8076 34.9019C22.8273 34.8906 22.8029 34.904 22.7148 34.978C22.6216 35.0564 22.4954 35.169 22.3359 35.3188C22.0178 35.6179 21.5985 36.0323 21.0947 36.5376C20.1098 37.5255 18.7575 38.908 17.334 40.3315L12.209 45.4565L12.1689 45.4976L12.124 45.5327C10.8843 46.5172 9.54967 46.9164 8.28613 46.8188C7.03456 46.7222 5.92613 46.144 5.11621 45.3032C3.49275 43.6178 3.00945 40.7941 4.93359 38.4849L4.96289 38.4497L4.99512 38.4175C6.1163 37.2963 8.60331 34.8277 10.8828 32.5513C13.1946 30.2427 15.2509 28.1728 15.5928 27.7739C15.7121 27.6343 15.7865 27.4696 15.7725 26.521C15.7592 25.6272 15.6922 24.2828 15.8906 22.2769C16.0692 20.4508 16.4661 18.8263 17.6982 17.5581L17.9561 17.3091C18.7747 16.5393 19.5706 16.1265 20.6953 15.9185C21.7326 15.7266 23.0856 15.7054 24.9795 15.6626H25.0283C25.8519 15.6839 26.4941 15.6775 27.0039 15.6685Z" fill="white" stroke="#105AF6" stroke-width="2" stroke-linecap="round"/>
</svg>
